<?xml version="1.0" encoding="UTF-8"?>
<svg id="_레이어_2" data-name="레이어 2" xmlns="http://www.w3.org/2000/svg" viewBox="0 0 30 30">
  <defs>
    <style>
      .cls-1 {
        fill: #fff;
      }

      .cls-2 {
        fill: none;
      }
    </style>
  </defs>
  <g id="_레이어_1-2" data-name="레이어 1">
    <path id="_패스_295" data-name="패스 295" class="cls-1" d="m6.74,6.74c.48-.48,1.25-.48,1.73,0,0,0,0,0,0,0l6.52,6.51,6.52-6.51c.47-.49,1.24-.51,1.74-.05.49.47.51,1.24.05,1.74-.02.02-.03.03-.05.05l-6.51,6.52,6.51,6.52c.47.49.44,1.27-.05,1.74-.47.45-1.21.45-1.69,0l-6.52-6.51-6.52,6.51c-.49.47-1.27.44-1.74-.05-.45-.47-.45-1.21,0-1.69l6.51-6.52-6.51-6.52c-.48-.48-.48-1.25,0-1.73,0,0,0,0,0,0Z"/>
    <path id="_패스_296" data-name="패스 296" class="cls-2" d="m0,0h30v30H0V0Z"/>
  </g>
</svg>