<?xml version="1.0" encoding="UTF-8"?>
<svg id="_레이어_2" data-name="레이어 2" xmlns="http://www.w3.org/2000/svg" viewBox="0 0 80 24">
  <defs>
    <style>
      .cls-1 {
        fill: #fff;
      }

      .cls-2 {
        fill: #131f46;
      }

      .cls-3 {
        fill: #444;
      }
    </style>
  </defs>
  <g id="_레이어_1-2" data-name="레이어 1">
    <g id="_패스_888" data-name="패스 888">
      <path class="cls-1" d="m72,23.5H8c-4.14,0-7.5-3.36-7.5-7.5v-8C.5,3.86,3.86.5,8,.5h64c4.14,0,7.5,3.36,7.5,7.5v8c0,4.14-3.36,7.5-7.5,7.5Z"/>
      <path class="cls-2" d="m8,1c-3.86,0-7,3.14-7,7v8c0,3.86,3.14,7,7,7h64c3.86,0,7-3.14,7-7v-8c0-3.86-3.14-7-7-7H8m0-1h64c4.42,0,8,3.58,8,8v8c0,4.42-3.58,8-8,8H8c-4.42,0-8-3.58-8-8v-8C0,3.58,3.58,0,8,0Z"/>
    </g>
    <path id="_패스_687" data-name="패스 687" class="cls-3" d="m6,4.5h3v15.01h-3V4.5Z"/>
    <path id="_패스_688" data-name="패스 688" class="cls-3" d="m30,4.5h6v15.01h-6V4.5Z"/>
    <path id="_패스_689" data-name="패스 689" class="cls-3" d="m39,4.5h3v15.01h-3V4.5Z"/>
    <path id="_패스_690" data-name="패스 690" class="cls-3" d="m45,4.5h3v15.01h-3V4.5Z"/>
    <path id="_패스_691" data-name="패스 691" class="cls-3" d="m51,4.5h3v15.01h-3V4.5Z"/>
    <path id="_패스_692" data-name="패스 692" class="cls-3" d="m12,4.5h9v15.01h-9V4.5Z"/>
    <path id="_패스_693" data-name="패스 693" class="cls-3" d="m24,4.5h3v15.01h-3V4.5Z"/>
    <path id="_패스_696" data-name="패스 696" class="cls-3" d="m57.5,4.49h6v15.01h-6V4.49Z"/>
    <path id="_패스_695" data-name="패스 695" class="cls-3" d="m66,4.49h3v15.01h-3V4.49Z"/>
    <path id="_패스_697" data-name="패스 697" class="cls-3" d="m71,4.49h3v15.01h-3V4.49Z"/>
  </g>
</svg>