<?xml version="1.0" encoding="UTF-8"?>
<svg id="_레이어_2" data-name="레이어 2" xmlns="http://www.w3.org/2000/svg" viewBox="0 0 66.99 98">
  <defs>
    <style>
      .cls-1 {
        fill: #fff;
      }
    </style>
  </defs>
  <g id="_레이어_1-2" data-name="레이어 1">
    <path id="_패스_889" data-name="패스 889" class="cls-1" d="m65.76,44.04c-.62-.74-1.3-1.42-1.87-2.21-.71-.99-1.38-2-2.09-2.99-1.31-1.79-2.72-3.49-4.24-5.11-1.06-1.25-2.52-2.09-4.13-2.38.21-.86.36-1.73.44-2.61v-.1c.06-.56.1-1.12.13-1.69,1.29-.28,2.48-.93,3.4-1.88.88-.83,1.65-1.76,2.31-2.78.39-.57,1.09-.86,1.77-.73l.29.06-.2-.21c-.51-.48-1.11-.86-1.76-1.12-1.12-.47-2.32-.7-3.54-.67-.68,0-1.34.14-1.97.4,0-.8-.03-1.61-.11-2.41.37.02.74.04,1.12.05.08,0,.2-.14.08-.14-.4-.01-.81-.02-1.21-.03-.03-.31-.08-.61-.12-.91.15-.05.3-.09.45-.11.33-.05.66-.09.99-.15.08-.01.17-.16.04-.14-.33.05-.66.09-.99.14-.17.03-.35.08-.51.14-.36-2.33-1.44-4.49-3.1-6.17-.31-.32-.65-.62-.99-.91.16-.28.31-.57.46-.86.05-.1-.12-.07-.15,0-.13.26-.28.52-.42.77-.37-.3-.75-.59-1.15-.85.29-.7.6-1.4.9-2.1.03-.08-.13-.04-.16.02-.28.66-.58,1.32-.86,1.99-.13-.08-.25-.17-.38-.25-1.27-.76-2.66-1.31-4.11-1.62,0-.03.02-.06.03-.1.01-.08-.13-.04-.14.02,0,.02,0,.03-.01.05-.17-.03-.34-.06-.51-.09,0-.16.01-.31.03-.47,0-.06-.13-.02-.14.03-.02.14-.03.28-.03.42-.71-.1-1.42-.14-2.14-.1-.52.03-1.09.08-1.68.16v-.52c.01-.05-.1-.01-.1.04v.49c-.29.04-.57.09-.86.15-.08-.36-.18-.71-.28-1.06,0-.03-.08,0-.07.04.1.35.18.69.25,1.05-1.55.27-2.98.99-4.13,2.07-.06-.2-.11-.4-.17-.6-.02-.07-.18.01-.16.08.07.22.13.44.19.66-.09.1-.18.19-.26.3-.01.02-.02.03-.03.05-.14-.22-.26-.46-.39-.68-.02-.03-.09.01-.07.04.14.24.26.49.4.73-.78,1.08-1.29,2.33-1.47,3.65-.32-.25-.63-.5-.94-.75.97-1.12,1.38-2.62,1.12-4.08-.12-.92-.34-1.83-.64-2.72.63-.86,1.18-1.78,1.64-2.75.08-.22.12-.46.13-.69,0-.04-.03-.07-.05-.1-.17,0-.34,0-.51.02-.09.02-.18.04-.27.07-.31.15-.62.34-.75.4-.47.23-.93.46-1.39.71-.1-.13-.2-.26-.31-.38-1.01-1.18-2.44-1.91-3.99-2.03-.32,0-.63.05-.93.14-.99.33-1.91.84-2.72,1.49-.19-.24-.38-.48-.54-.72-.36-.53-.77-1.03-1.21-1.49-.39-.03-.26,1.38-.26,1.58,0,.37-.02.74-.02,1.11.02.37.04.74.08,1.11-.18.16-.35.33-.51.52-.75,1.03-1.19,2.25-1.27,3.52-.13,1.06-.17,2.13-.12,3.2,0,.52.02,1.07,0,1.6,0,.11-.01.22-.03.33-.06,0-.12.01-.18.02-.2.06-.41.13-.6.19-1.06.31-2.15.58-3.18.95-1.42.52,1.59,1.63,1.91,1.8.25.13.53.28.81.43-.1.42-.17.84-.21,1.27-.08.89-.23,1.79-.38,2.66-.1.59-.2,1.2-.28,1.8-.45.2-.88.42-1.3.66-.71.37-1.43.64-2.18.94-.14.06-.2.11-.2.25,0,.02.01.03.03.03.92.19,1.86.29,2.8.3.18.01.38.04.58.07-.16,1.19-.35,2.36-.56,3.51-.07.39-.13.8-.18,1.19-.07.48-.14.98-.24,1.47-.03.14-.07.28-.11.42-1.08-.32-2.25-.11-3.14.58-1.36.64-2.22,2.58-2.34,4.05-.15,1.31,0,2.64.46,3.87.5,1.7,1.51,3.24,3.31,3.61.1.02.2.03.31.03.51,1.36,1.11,2.69,1.79,3.98,1.13,1.73,2.29,3.84,4.11,4.71.51.2,1.04.34,1.58.39.34-.03.66-.14.94-.33.6-.44.98-1.11,1.07-1.85,1.81-.98,3.52-2.13,5.11-3.44-.06.7-.09,1.4-.09,2.08,0,2.63.45,5.24,1.33,7.72-.28-.16-.62-.22-.94-.15-.1.04-.17.14-.17.24.02.47.59.93.84,1.34-.07,0-.13.02-.19.05-.12.08-.21.2-.24.35-.02.06-.04.13-.05.19-.03.18.03.36.16.49.1.09.23.13.37.12-.06.3-.12.6-.17.91-.05.27-.08.54-.1.82-1.91-.02-3.82.23-5.66.73-.24.07-1.52.3-1.42.85.07.37.7.45,1.26.46-.88.2-1.75.47-2.59.8-.79-.23-1.64-.13-2.36.29-.69.44-1.14,1.16-1.23,1.97h0v.06s0,.06,0,.09c-.12.68-1.38,1.75-1.75,2.2-.62.74-1.21,1.5-1.78,2.28-.92,1.25-1.79,2.65-2.79,3.88-.32-.63-.7-1.23-1.11-1.81-.49-.69-1.02-1.41-1.58-2.09.03-.03.06-.06.09-.09.16-.19.3-.4.39-.64.29-.45.33-1.02.11-1.51-.34-.58-1-.89-1.66-.8-.37.06-.72.21-1.02.43-.11-.31-.38-.53-.71-.57-.42-.05-.84.11-1.13.43-.37-.46-1.24-.11-1.63.24-.02.02-.05.05-.07.07-.02-.08-.08-.14-.15-.16-.32-.04-.65.02-.94.18-.26.12-.46.35-.55.63-.39-.14-.83.06-.97.45-.02.06-.04.13-.04.2-.04.65.45,1.22,1.1,1.26.06,0,.12,0,.18,0-.61,1.45-.35,3.12.67,4.32.81,1.01,1.83,1.82,2.57,2.89.69,1.25,1.16,2.61,1.4,4.01.16.9.69,1.69,1.47,2.18.78.48,1.7.66,2.61.5,1.04-.41,1.86-1.23,2.27-2.27.17-.51.28-1.04.35-1.58.03-.69.15-1.37.37-2.02.44-1.02,1.07-1.94,1.87-2.71.5-.71,1.09-1.34,1.76-1.89,1.08-.96,2.28-1.8,3.41-2.7.82-.61,1.54-1.34,2.13-2.17.24-.41.38-.87.39-1.34.23-.03.46-.01.69-.02,1.05.11,3,.31,4.67.47-.3.34-.46.59-.33.67.39.25,1.13-.09,1.51-.21.26-.08.51-.17.77-.27l.37.03c.33.03.66.06.99.08-.02.07-.03.14-.03.21,0,.03.02.06.05.07.48.09.98.07,1.46-.03.24-.03.48-.06.72-.1.16,0,.33.02.49.02.32.01.65.01.97.02-.31.49-.55,1.03-.69,1.59-.18.83,1.36.28,1.58.2.48-.19.94-.42,1.37-.69.09-.05.18-.11.28-.17-.27.26-.52.57-.49.86,0,.03.02.05.05.06.29.08.6.04.86-.1.7-.25,1.4-.47,2.1-.73.18-.07-.7.99-.81,1.21-.1.19-.2.34-.09.56.25.5,2.25-.08,2.59-.17.74-.18,1.47-.45,2.16-.79-.21.36-.42.72-.61,1.1-1.25,2.1-1.99,4.47-2.15,6.91-.05.13-.09.26-.12.39-.11.68.18,1.36.74,1.77.63.58,1.5.83,2.34.69-.02.46,4.24,2.37,4.79,2.62,1.55.74,3.18,1.31,4.85,1.71-.37.37-.69.78-.97,1.23-.47.63-.94,1.25-1.39,1.89-.54.78-.99,1.62-1.5,2.43-.35.56-.74,1.11-1.06,1.69-.1-.06-.2-.1-.31-.12-.61-.12-1.23.13-1.58.64-.35.5-.22,1.19.28,1.54.04.03.09.06.14.08.36.24.8.31,1.22.2,0,.56.73.82,1.26.62,0,.03,0,.06,0,.08.07.37.37.66.74.71.28.03.56-.02.81-.14,0,.19.09.37.23.5.25.17.56.22.85.14,0,.04,0,.09,0,.13,0,0,.01.01.02.02.09.15.16.32.27.46.53.28,1.16.32,1.72.12.28-.1.52-.3.65-.57.16-.29-.13-.76.21-.96.02,0,.03-.02.04-.04.66-.46,1.24-1.03,1.69-1.7.69-1.06,1.31-2.17,1.83-3.33.59-1.25.65-2.47,1.73-3.46,1.23-1.12,1.72-3.32.18-4.45-.98-.72-2.99-1.47-4.29-.94-.21.06-.41.15-.6.25-.03,0-.05,0-.08.01h0c-1.7-.94-3.25-2.13-4.6-3.52-.79-.86-1.63-1.68-2.51-2.45-.32-.27-.7-.48-1.1-.61,1.51-1.77,3.13-3.45,4.85-5.04.88-.8,1.72-1.64,2.58-2.46.04-.03.08-.06.11-.11.06-.06.12-.12.19-.18.27-.24.49-.53.64-.86.41.24.88.39,1.36.41.1-.02.19-.1.2-.21-.04-.65-.29-1.27-.69-1.78.83.29,1.74.23,2.52-.16.07-.06.15-.19.1-.28-.26-.48-.87-.61-1.36-.75-.42-.12-1.01-.29-.9-.84.08-.49.12-.98.12-1.47.15-.02.29-.05.43-.1.49-.17.94-.45,1.32-.81,1.3-1.53,1.59-3.67.74-5.49,1.53-1.34,2.87-2.89,3.99-4.59,1.05-1.32,1.86-2.8,2.4-4.39h.01c.97-.25,1.07-1.4.66-2.19-.26-.34-.6-.61-1-.78ZM26.33,19.29c.13-.28.26-.57.4-.85.07.33.17.65.31.95.21.47.5.89.87,1.24-.4.46-.76.96-1.05,1.49-.06-.13-.13-.26-.19-.39h0c-.3-.46-.57-.92-.85-1.38.17-.35.35-.7.52-1.06Zm3.69,17.68c-1.26,1.4-2.67,2.65-4.22,3.72-1.49,1.16-2.84,2.48-4.04,3.94-.59-.69-1.34-1.28-2.05-1.96-.76-.73-1.5-1.5-2.2-2.29v-.02c.39-.92.57-1.92.51-2.93.01-.15.02-.3.02-.45.16-1.01.57-1.96,1.19-2.77.12-.21.1-.48-.07-.67-.28-.49-.85-.3-1.32,0,.21-.46.42-.92.64-1.37.55-1.12,1.17-2.22,1.86-3.34.37.27.73.56,1.09.86.29.24.78.87,1.2.74.05-.02.13-.07.12-.13-.08-.48-.27-.93-.54-1.33-.31-.56-.55-1.15-.84-1.72.37-.54.76-1.09,1.16-1.64.82-1.1,1.57-2.24,2.26-3.43.14.07.28.13.43.19.42.18.85.34,1.26.55-.04.1-.08.21-.12.32-.71,2.7-.14,5.57,1.54,7.79,1.16,1.4,2.59,2.56,4.19,3.42-.76.79-1.45,1.64-2.09,2.53h0Zm2.13-22.95s-.03-.06-.04-.09h.06s0,.06-.01.09Zm26.77,33.47c-.25.98-.57,1.95-.85,2.92-.29.89-.76,1.71-1.38,2.41.27-1.78.43-3.57.48-5.36.07-1.74-.01-3.48-.24-5.2.16.17.33.34.49.51.87.79,1.63,1.69,2.26,2.69,0,.01.02.03.03.04-.4.6-.66,1.28-.79,1.99h0Z"/>
  </g>
</svg>