<?xml version="1.0" encoding="UTF-8"?>
<svg id="_레이어_2" data-name="레이어 2" xmlns="http://www.w3.org/2000/svg" viewBox="0 0 82 82">
  <defs>
    <style>
      .cls-1 {
        fill: #fff;
      }

      .cls-2 {
        fill: #313131;
      }
    </style>
  </defs>
  <g id="_레이어_1-2" data-name="레이어 1">
    <g>
      <circle id="_타원_278" data-name="타원 278" class="cls-2" cx="41" cy="41" r="41"/>
      <g id="_그룹_1705" data-name="그룹 1705">
        <path id="_패스_901" data-name="패스 901" class="cls-1" d="m58.34,38.81c-.34-.4-.7-.76-1.01-1.2-.38-.53-.74-1.08-1.12-1.61-.7-.97-1.46-1.89-2.28-2.76-.57-.67-1.35-1.13-2.22-1.29.11-.46.19-.94.24-1.41v-.05c.03-.3.05-.61.07-.91.7-.15,1.33-.5,1.83-1.02.47-.45.89-.95,1.24-1.5.21-.31.59-.46.95-.39l.15.03-.11-.11c-.27-.26-.59-.47-.94-.61-.6-.25-1.25-.38-1.9-.36-.36,0-.72.08-1.06.22,0-.43-.02-.87-.06-1.3.2.01.4.02.6.02.04,0,.11-.08.04-.08-.22,0-.43-.01-.65-.02-.02-.17-.04-.33-.07-.49.08-.03.16-.05.24-.06.18-.02.35-.05.53-.08.04,0,.09-.09.02-.08-.18.02-.35.05-.53.08-.09.02-.19.04-.28.08-.19-1.26-.77-2.43-1.66-3.34-.17-.17-.35-.34-.53-.49.09-.15.17-.31.25-.46.03-.05-.06-.04-.08,0-.07.14-.15.28-.23.42-.2-.16-.4-.32-.61-.46.16-.38.32-.76.48-1.13.02-.04-.07-.02-.09.01-.15.36-.31.72-.46,1.08-.07-.05-.14-.09-.21-.13-.68-.41-1.43-.71-2.21-.88,0-.02.01-.03.01-.05,0-.05-.07-.02-.08.01,0,0,0,.02,0,.03-.09-.02-.18-.03-.28-.05,0-.09,0-.17.01-.26,0-.03-.07-.01-.08.02,0,.07-.01.15-.02.23-.38-.06-.76-.07-1.15-.05-.28.02-.59.04-.9.09v-.28s-.05,0-.05.02v.27c-.16.02-.31.05-.46.08-.04-.19-.1-.39-.15-.57,0-.02-.04,0-.04.02.05.19.1.38.14.56-.83.15-1.6.54-2.22,1.12-.03-.11-.06-.22-.09-.32-.01-.04-.1,0-.08.05.04.12.07.24.1.36-.05.05-.1.1-.14.16l-.02.03c-.07-.12-.14-.25-.21-.37,0-.02-.05,0-.04.02.08.13.14.27.22.39-.42.58-.69,1.26-.79,1.97-.17-.13-.34-.27-.5-.4.52-.61.74-1.42.6-2.21-.07-.5-.18-.99-.34-1.47.34-.47.64-.96.88-1.49.04-.12.07-.25.07-.37,0-.02-.02-.04-.03-.05-.09,0-.18,0-.27.01-.05.01-.1.02-.14.04-.17.08-.33.18-.4.22-.25.12-.5.25-.75.38-.05-.07-.11-.14-.17-.21-.54-.64-1.31-1.03-2.14-1.1-.17,0-.34.02-.5.07-.53.18-1.03.45-1.46.8-.1-.13-.2-.26-.29-.39-.19-.29-.41-.56-.65-.81-.21-.02-.14.75-.14.85,0,.2-.01.4-.01.6,0,.2.02.4.04.6-.1.09-.19.18-.27.28-.4.56-.64,1.22-.68,1.9-.07.57-.09,1.15-.07,1.73,0,.28.01.58,0,.86,0,.06,0,.12-.02.18-.03,0-.06,0-.09,0-.11.03-.22.07-.32.1-.57.16-1.15.31-1.71.52-.76.28.85.88,1.03.97.14.07.28.15.43.23-.05.23-.09.45-.11.68-.05.48-.12.97-.2,1.44-.05.32-.11.65-.15.97-.24.11-.47.23-.7.36-.38.2-.77.35-1.17.51-.08.03-.11.06-.11.14,0,0,0,.02.02.02.49.1,1,.16,1.5.16.1,0,.2.02.31.04-.09.64-.19,1.28-.3,1.9-.04.21-.07.43-.1.64-.04.26-.07.53-.13.79-.02.08-.04.15-.06.23-.58-.17-1.21-.06-1.69.31-.74.49-1.21,1.3-1.26,2.19-.08.71,0,1.43.24,2.09.17.94.86,1.69,1.78,1.95.05.01.11.02.17.02.28.74.6,1.45.96,2.15.5,1.03,1.26,1.9,2.21,2.55.27.11.56.18.85.21.18-.02.35-.08.5-.18.32-.24.53-.6.58-1,.97-.53,1.89-1.15,2.75-1.86-.03.38-.05.75-.05,1.13,0,1.42.24,2.83.71,4.17-.15-.09-.33-.12-.51-.08-.05.02-.09.07-.09.13.01.25.32.5.45.72-.04,0-.07.01-.1.03-.07.04-.11.11-.13.19-.01.03-.02.07-.03.1-.02.1.01.2.08.26.05.05.13.07.2.06-.03.16-.06.33-.09.49-.03.15-.04.29-.05.44-1.03-.01-2.05.12-3.04.39-.13.04-.82.16-.76.46.04.2.38.24.68.25-.47.11-.94.25-1.39.43-.43-.13-.88-.07-1.27.16-.37.24-.61.63-.66,1.06h0v.08c-.07.37-.74.95-.94,1.19-.33.4-.65.81-.96,1.23-.49.68-.96,1.44-1.5,2.1-.18-.34-.38-.67-.6-.98-.26-.37-.55-.76-.85-1.13.02-.02.04-.03.05-.05.09-.1.16-.22.21-.34.16-.24.18-.55.06-.81-.18-.31-.53-.48-.89-.43-.2.03-.39.11-.55.23-.06-.17-.21-.29-.38-.31-.23-.02-.45.06-.61.23-.2-.25-.67-.06-.87.13-.01.01-.02.03-.04.04-.01-.04-.04-.07-.08-.09-.17-.02-.35.01-.5.1-.14.07-.25.19-.3.34-.21-.08-.44.03-.52.24-.01.03-.02.07-.02.11-.02.35.24.66.59.68.03,0,.06,0,.1,0-.33.79-.19,1.69.36,2.34.43.55.98.98,1.38,1.56.37.68.62,1.41.75,2.17.08.49.37.92.79,1.18.42.26.92.36,1.4.27.56-.22,1-.67,1.22-1.23.09-.28.15-.56.19-.85.01-.37.08-.74.2-1.1.23-.55.57-1.05,1-1.46.27-.38.59-.73.94-1.02.58-.52,1.22-.97,1.83-1.46.44-.33.83-.73,1.14-1.18.13-.22.2-.47.21-.72.12-.02.25,0,.37,0,.57.06,1.61.17,2.51.25-.16.18-.25.32-.18.36.21.13.61-.05.81-.12.14-.04.28-.09.41-.14l.2.02.53.04s-.01.07-.01.11c0,.02.01.03.03.04.26.05.53.04.79-.02.13-.01.26-.03.39-.05h.27c.17.02.35.02.52.02-.17.27-.29.56-.37.86-.1.45.73.15.85.11.26-.1.5-.23.74-.38.05-.03.1-.06.15-.09-.14.14-.28.31-.27.46,0,.01.01.03.03.03.16.04.32.02.46-.05.37-.14.75-.25,1.13-.4.1-.04-.38.54-.43.65s-.11.18-.05.3c.13.27,1.21-.04,1.39-.09.4-.1.79-.24,1.16-.42-.11.19-.23.39-.33.59-.67,1.14-1.07,2.42-1.16,3.75-.03.07-.05.14-.07.21-.06.37.1.74.4.96.34.31.8.45,1.26.37,0,.25,2.28,1.28,2.58,1.42.83.4,1.71.71,2.61.92-.2.2-.37.42-.52.67-.25.34-.5.68-.74,1.03-.29.42-.53.88-.81,1.31-.19.3-.4.6-.57.91-.05-.03-.11-.05-.17-.07-.33-.06-.66.07-.85.34-.19.27-.12.65.15.83.02.02.05.03.07.04.19.13.43.17.65.11,0,.3.4.44.68.34,0,.01,0,.03,0,.04.04.2.2.35.4.38.15.02.3-.01.43-.08,0,.1.05.2.12.27.13.09.3.12.46.08,0,.02,0,.05,0,.07,0,0,0,0,.01.01.05.08.09.17.14.25.29.15.62.18.92.07.15-.05.28-.16.35-.31.09-.16-.07-.41.11-.52,0,0,.02-.01.02-.02.36-.25.67-.56.91-.92.37-.57.7-1.18.98-1.8.32-.68.35-1.33.93-1.87.69-.54.81-1.53.27-2.22-.05-.07-.11-.13-.18-.19-.65-.5-1.5-.69-2.3-.51-.11.03-.22.08-.32.13-.01,0-.03,0-.04,0h0c-.91-.51-1.74-1.15-2.47-1.9-.43-.46-.88-.91-1.35-1.32-.17-.15-.37-.26-.59-.33.81-.96,1.68-1.87,2.6-2.73.47-.43.92-.89,1.39-1.33.02-.01.04-.03.06-.06l.1-.1c.15-.13.26-.29.35-.47.22.13.47.21.73.22.06-.01.1-.06.11-.11-.02-.35-.15-.69-.37-.96.44.16.93.12,1.35-.08.04-.03.08-.1.05-.15-.14-.26-.47-.33-.73-.41-.23-.07-.54-.15-.48-.45.04-.26.07-.53.06-.8.08-.01.16-.03.23-.06.27-.09.51-.24.71-.44.7-.83.86-1.99.4-2.97.82-.73,1.54-1.56,2.14-2.48.56-.71,1-1.52,1.29-2.38h0c.52-.13.58-.76.35-1.18-.14-.18-.32-.33-.54-.42Zm-21.19-13.39c.07-.15.14-.31.21-.46.04.18.09.35.17.51.11.25.27.48.47.67-.22.25-.41.52-.57.81-.03-.07-.07-.14-.1-.21h0c-.16-.24-.3-.5-.46-.74.09-.19.19-.38.28-.58Zm1.98,9.56c-.67.76-1.43,1.43-2.27,2.01-.8.63-1.53,1.34-2.17,2.13-.32-.37-.72-.69-1.1-1.06-.41-.4-.8-.81-1.18-1.24h0c.22-.51.31-1.05.28-1.59,0-.08.01-.17.01-.24.09-.55.3-1.06.64-1.5.07-.12.05-.26-.04-.36-.15-.26-.45-.17-.71,0,.11-.25.23-.5.35-.74.3-.6.63-1.2,1-1.81.2.15.39.3.58.47.15.13.42.47.64.4.03,0,.07-.04.07-.07-.04-.26-.14-.5-.29-.72-.17-.3-.3-.62-.45-.93.2-.29.41-.59.63-.89.44-.6.84-1.21,1.21-1.85.08.03.15.07.23.1.23.1.46.19.68.3-.02.06-.05.11-.06.17-.38,1.46-.08,3.01.83,4.21.62.76,1.39,1.38,2.25,1.85-.41.43-.78.89-1.12,1.37h0Zm1.14-12.41l-.02-.05h.03s0,.03,0,.05h0Zm14.38,18.1c-.14.53-.31,1.05-.46,1.58-.15.48-.41.92-.74,1.3.14-.96.23-1.93.26-2.9.04-.94,0-1.88-.13-2.81.09.09.18.18.26.28.47.43.88.91,1.21,1.45,0,0,.01.02.02.02-.21.33-.36.7-.42,1.08h0Z"/>
        <path id="_패스_902" data-name="패스 902" d="m58.24,25.07c-.31-.24-.68-.03-.9.21-.38.34-.69.75-.9,1.22.18-.1.95-.51,1.16-.58.3-.1,1.16-.45.64-.85Z"/>
        <path id="_패스_903" data-name="패스 903" d="m58.19,28.34c.23.04.61-.09.61-.38,0-.05,0-.09-.01-.14-.21-.37-.63-.57-1.05-.51-.45.05-.9.19-1.3.4.35.09.7.22,1.02.39.22.13.47.21.73.25Z"/>
      </g>
    </g>
  </g>
</svg>