<?xml version="1.0" encoding="UTF-8"?>
<svg id="_레이어_2" data-name="레이어 2" xmlns="http://www.w3.org/2000/svg" viewBox="0 0 82 82">
  <defs>
    <style>
      .cls-1 {
        fill: #fff;
      }

      .cls-2 {
        fill: none;
      }

      .cls-3 {
        fill: #ffd800;
      }
    </style>
  </defs>
  <g id="_레이어_1-2" data-name="레이어 1">
    <g>
      <circle id="_타원_276" data-name="타원 276" class="cls-3" cx="41" cy="41" r="41"/>
      <g id="star">
        <path id="_패스_899" data-name="패스 899" class="cls-1" d="m38.65,23.54c.36-1.3,1.71-2.05,3.01-1.69.82.23,1.46.87,1.69,1.69l2.65,8.5c.31,1.04,1.26,1.76,2.35,1.77h8.56c1.43.06,2.55,1.28,2.48,2.71-.03.77-.41,1.49-1.03,1.96l-6.92,5.24c-.87.68-1.23,1.82-.9,2.88l2.64,8.48c.46,1.3-.22,2.73-1.52,3.19-.77.27-1.62.16-2.28-.32l-6.92-5.25c-.86-.66-2.05-.66-2.91,0l-6.93,5.24c-1.13.8-2.69.53-3.48-.6-.47-.66-.59-1.52-.32-2.28l2.63-8.49c.33-1.05-.03-2.2-.9-2.88l-6.92-5.24c-1.15-.87-1.37-2.5-.51-3.64.47-.62,1.19-1,1.96-1.03h8.57c1.09-.01,2.04-.73,2.35-1.77l2.64-8.49Z"/>
        <path id="_패스_900" data-name="패스 900" class="cls-2" d="m16,16h50v50H16V16Z"/>
      </g>
    </g>
  </g>
</svg>