<?xml version="1.0" encoding="UTF-8"?>
<svg id="_레이어_2" data-name="레이어 2" xmlns="http://www.w3.org/2000/svg" viewBox="0 0 18 18.02">
  <defs>
    <style>
      .cls-1 {
        fill: #0d0d0d;
      }
    </style>
  </defs>
  <g id="_레이어_1-2" data-name="레이어 1">
    <path id="_패스_710" data-name="패스 710" class="cls-1" d="m.37.4c.5-.5,1.31-.5,1.81,0,0,0,0,0,0,0l6.8,6.8L15.79.4c.49-.51,1.3-.53,1.81-.04.51.49.53,1.3.04,1.81-.01.01-.03.03-.04.04l-6.8,6.81,6.8,6.81c.47.53.41,1.34-.12,1.81-.48.42-1.2.42-1.68,0l-6.8-6.8-6.8,6.8c-.5.5-1.31.5-1.82,0s-.5-1.31,0-1.82H.37l6.8-6.81L.37,2.21C-.12,1.71-.12.9.37.4Z"/>
  </g>
</svg>