<?xml version="1.0" encoding="UTF-8"?>
<svg id="_레이어_2" data-name="레이어 2" xmlns="http://www.w3.org/2000/svg" viewBox="0 0 24 24">
  <defs>
    <style>
      .cls-1 {
        fill: #ff4e4e;
      }

      .cls-2 {
        fill: none;
      }
    </style>
  </defs>
  <g id="_레이어_1-2" data-name="레이어 1">
    <g id="heart">
      <path id="_패스_875" data-name="패스 875" class="cls-1" d="m11.44,3.94l.52.56.56-.56c1.55-1.53,3.74-2.22,5.88-1.88,3.23.54,5.6,3.34,5.6,6.61v.27c0,1.95-.81,3.8-2.23,5.13l-8.47,7.91c-.73.68-1.87.68-2.6,0L2.23,14.08C.81,12.75,0,10.9,0,8.95v-.27C0,4.97,3,1.98,6.7,1.98c1.78,0,3.48.71,4.74,1.96Zm.52,3.75l-2.11-2.2c-1.04-.99-2.47-1.43-3.89-1.2-2.14.36-3.71,2.22-3.71,4.39v.27c0,1.32.55,2.58,1.52,3.48l8.23,7.69,8.24-7.69c.97-.9,1.51-2.16,1.51-3.48v-.27c0-2.17-1.57-4.03-3.72-4.39-1.41-.23-2.85.21-3.89,1.2l-2.19,2.2Z"/>
      <path id="_패스_876" data-name="패스 876" class="cls-2" d="m0,0h24v24H0V0Z"/>
    </g>
  </g>
</svg>