<?xml version="1.0" encoding="UTF-8"?>
<svg id="_레이어_2" data-name="레이어 2" xmlns="http://www.w3.org/2000/svg" viewBox="0 0 30 30">
  <defs>
    <style>
      .cls-1 {
        fill: #fff;
      }

      .cls-2, .cls-3 {
        fill: none;
      }

      .cls-3 {
        stroke: #fff;
        stroke-linecap: round;
        stroke-linejoin: round;
        stroke-width: 3px;
      }
    </style>
  </defs>
  <g id="_레이어_1-2" data-name="레이어 1">
    <path id="_패스_203" data-name="패스 203" class="cls-1" d="m20.16,19.69h3.75c.26,0,.47.21.47.47v3.75c0,.26-.21.47-.47.47h-3.75c-.26,0-.47-.21-.47-.47v-3.75c0-.26.21-.47.47-.47Z"/>
    <path id="_패스_204" data-name="패스 204" class="cls-1" d="m16.41,15.94h2.81c.26,0,.47.21.47.47v2.81c0,.26-.21.47-.47.47h-2.81c-.26,0-.47-.21-.47-.47v-2.81c0-.26.21-.47.47-.47Z"/>
    <path id="_패스_205" data-name="패스 205" class="cls-1" d="m24.84,24.38h2.81c.26,0,.47.21.47.47v2.81c0,.26-.21.47-.47.47h-2.81c-.26,0-.47-.21-.47-.47v-2.81c0-.26.21-.47.47-.47Z"/>
    <path id="_패스_206" data-name="패스 206" class="cls-1" d="m25.78,15.94h1.88c.26,0,.47.21.47.47v1.88c0,.26-.21.47-.47.47h-1.88c-.26,0-.47-.21-.47-.47v-1.88c0-.26.21-.47.47-.47Z"/>
    <path id="_패스_207" data-name="패스 207" class="cls-1" d="m16.41,25.31h1.88c.26,0,.47.21.47.47v1.88c0,.26-.21.47-.47.47h-1.88c-.26,0-.47-.21-.47-.47v-1.88c0-.26.21-.47.47-.47Z"/>
    <path id="_패스_208" data-name="패스 208" class="cls-1" d="m20.16,5.62h3.75c.26,0,.47.21.47.47v3.75c0,.26-.21.47-.47.47h-3.75c-.26,0-.47-.21-.47-.47v-3.75c0-.26.21-.47.47-.47Z"/>
    <path id="_패스_209" data-name="패스 209" class="cls-3" d="m17.81,2.81h8.44c.52,0,.94.42.94.93,0,0,0,0,0,0v8.44c0,.52-.42.94-.93.94,0,0,0,0,0,0h-8.44c-.52,0-.94-.42-.94-.93,0,0,0,0,0,0V3.75c0-.52.42-.94.93-.94,0,0,0,0,0,0Z"/>
    <path id="_패스_210" data-name="패스 210" class="cls-1" d="m6.09,5.62h3.75c.26,0,.47.21.47.47v3.75c0,.26-.21.47-.47.47h-3.75c-.26,0-.47-.21-.47-.47v-3.75c0-.26.21-.47.47-.47Z"/>
    <path id="_패스_211" data-name="패스 211" class="cls-3" d="m3.75,2.81h8.44c.52,0,.94.42.94.93,0,0,0,0,0,0v8.44c0,.52-.42.94-.93.94,0,0,0,0,0,0H3.75c-.52,0-.94-.42-.94-.93,0,0,0,0,0,0V3.75c0-.52.42-.94.93-.94,0,0,0,0,0,0Z"/>
    <path id="_패스_212" data-name="패스 212" class="cls-1" d="m6.09,19.69h3.75c.26,0,.47.21.47.47v3.75c0,.26-.21.47-.47.47h-3.75c-.26,0-.47-.21-.47-.47v-3.75c0-.26.21-.47.47-.47Z"/>
    <path id="_패스_213" data-name="패스 213" class="cls-3" d="m3.75,16.88h8.44c.52,0,.94.42.94.93,0,0,0,0,0,0v8.44c0,.52-.42.94-.93.94H3.75c-.52,0-.94-.42-.94-.93,0,0,0,0,0,0v-8.44c0-.52.42-.94.93-.94,0,0,0,0,0,0Z"/>
    <path id="_패스_214" data-name="패스 214" class="cls-2" d="m0,0h30v30H0V0Z"/>
  </g>
</svg>