<?xml version="1.0" encoding="UTF-8"?>
<svg id="_레이어_2" data-name="레이어 2" xmlns="http://www.w3.org/2000/svg" viewBox="0 0 50 50">
  <defs>
    <style>
      .cls-1 {
        fill: #fae300;
      }

      .cls-2 {
        fill: #391b1b;
      }
    </style>
  </defs>
  <g id="_레이어_1-2" data-name="레이어 1">
    <g id="_그룹_1691" data-name="그룹 1691">
      <circle id="_타원_268" data-name="타원 268" class="cls-1" cx="25" cy="25" r="25"/>
      <g id="_그룹_163" data-name="그룹 163">
        <path id="_패스_290" data-name="패스 290" class="cls-2" d="m25.62,11.25c-7.94,0-14.38,5.3-14.38,11.83,0,4.25,2.73,7.98,6.82,10.07-.3,1.17-1.09,4.23-1.25,4.89-.19.81.29.8.6.58.25-.17,3.94-2.78,5.53-3.91.88.13,1.77.2,2.67.2,7.94,0,14.38-5.3,14.38-11.83s-6.44-11.83-14.38-11.83"/>
        <g id="_그룹_160" data-name="그룹 160">
          <path id="_패스_291" data-name="패스 291" class="cls-1" d="m20.19,19.6h-4.38c-.41,0-.74.33-.74.74s.33.74.74.74h1.42v5.24c0,.4.33.72.73.73h.16c.4,0,.72-.33.73-.73v-5.24h1.34c.41,0,.74-.33.74-.74s-.33-.74-.74-.74Z"/>
          <path id="_패스_292" data-name="패스 292" class="cls-1" d="m29.92,25.65h-2.04v-5.36c0-.45-.36-.81-.81-.81s-.81.36-.81.81v5.77s0,.09.01.13c0,.04-.01.09-.01.13,0,.37.3.68.67.68h2.98c.37,0,.68-.3.68-.68s-.3-.68-.68-.68h0Z"/>
          <path id="_패스_293" data-name="패스 293" class="cls-1" d="m36.03,25.9l-2.27-2.98,2.05-2.05c.29-.27.3-.72.03-1.01s-.72-.3-1.01-.03c-.01.01-.02.02-.03.03l-2.54,2.54v-2.1c.02-.45-.33-.82-.78-.84-.45-.02-.82.33-.84.78,0,.02,0,.04,0,.06v5.95c-.02.45.33.82.78.84.45.02.82-.33.84-.78,0-.02,0-.04,0-.06v-1.84l.46-.46,2.14,2.82c.24.32.69.38,1.01.14.32-.24.38-.69.14-1.01h0Z"/>
          <path id="_패스_294" data-name="패스 294" class="cls-1" d="m26.09,26.1l-2.18-5.97h0c-.18-.41-.59-.65-1.02-.64-.49-.03-.93.28-1.06.75-.02.03-.03.07-.04.1l-2.15,5.75c-.13.38.07.79.44.92s.79-.07.92-.44l.37-1.06h2.99l.37,1.06c.13.38.55.58.92.44s.58-.55.44-.92h0Zm-4.25-1.93l1-2.86h.03l1,2.86h-2.03Z"/>
        </g>
      </g>
    </g>
  </g>
</svg>