<?xml version="1.0" encoding="UTF-8"?>
<svg id="_레이어_2" data-name="레이어 2" xmlns="http://www.w3.org/2000/svg" xmlns:xlink="http://www.w3.org/1999/xlink" viewBox="0 0 305.94 171.86">
  <defs>
    <style>
      .cls-1, .cls-2 {
        fill: #fff;
      }

      .cls-2 {
        font-family: GmarketSansTTFMedium, 'Gmarket Sans TTF';
      }

      .cls-2, .cls-3, .cls-4 {
        isolation: isolate;
      }

      .cls-2, .cls-4 {
        font-size: 19.7px;
      }

      .cls-5 {
        clip-path: url(#clippath);
      }

      .cls-6 {
        fill: none;
      }

      .cls-4 {
        font-family: GmarketSansTTFBold, 'Gmarket Sans TTF';
      }

      .cls-4, .cls-7 {
        fill: #ffd800;
      }
    </style>
    <clipPath id="clippath">
      <rect class="cls-6" x="261.83" width="43.17" height="43.28"/>
    </clipPath>
  </defs>
  <g id="_레이어_1-2" data-name="레이어 1">
    <g>
      <g id="_방탈출도_성공하고_포인트도_쌓이고_" data-name="방탈출도 성공하고 포인트도 쌓이고 " class="cls-3">
        <text class="cls-4" transform="translate(0 165)"><tspan x="0" y="0">방탈출</tspan></text>
        <text class="cls-2" transform="translate(56.85 165)"><tspan x="0" y="0">도 성공하고 </tspan></text>
        <text class="cls-4" transform="translate(162.64 165)"><tspan x="0" y="0">포인트</tspan></text>
        <text class="cls-2" transform="translate(219.5 165)"><tspan x="0" y="0">도 쌓이고!</tspan></text>
      </g>
      <rect id="_사각형_1500" data-name="사각형 1500" class="cls-1" x="0" y="0" width="10.63" height="77.08"/>
      <rect id="_사각형_1501" data-name="사각형 1501" class="cls-1" x="34.8" y="0" width="10.63" height="77.08"/>
      <rect id="_사각형_1502" data-name="사각형 1502" class="cls-1" x="53.94" y="0" width="10.63" height="87.56"/>
      <rect id="_사각형_1509" data-name="사각형 1509" class="cls-1" x="217.65" y=".64" width="10.63" height="118.68"/>
      <rect id="_사각형_1512" data-name="사각형 1512" class="cls-1" x="238.69" y=".64" width="10.63" height="118.68"/>
      <rect id="_사각형_1519" data-name="사각형 1519" class="cls-1" x="294" y="50.57" width="10.63" height="68.76"/>
      <rect id="_사각형_1503" data-name="사각형 1503" class="cls-1" x="103.66" y="32.75" width="10.63" height="47.02"/>
      <rect id="_사각형_1504" data-name="사각형 1504" class="cls-1" x="174.81" y="30.14" width="10.82" height="50.52"/>
      <rect id="_사각형_1505" data-name="사각형 1505" class="cls-1" x="198.56" y="30.14" width="10.82" height="50.52"/>
      <rect id="_사각형_1513" data-name="사각형 1513" class="cls-1" x="122.31" y="73.19" width="10.63" height="45.08"/>
      <rect id="_사각형_1514" data-name="사각형 1514" class="cls-1" x="103.66" y="70.02" width="47.98" height="10.63"/>
      <rect id="_사각형_1506" data-name="사각형 1506" class="cls-1" x="159.75" y="30.14" width="49.54" height="10.63"/>
      <rect id="_사각형_1510" data-name="사각형 1510" class="cls-1" x="218.2" y="30.14" width="27.52" height="10.63"/>
      <rect id="_사각형_1517" data-name="사각형 1517" class="cls-1" x="103.55" y="108.7" width="124.73" height="10.63"/>
      <rect id="_사각형_1511" data-name="사각형 1511" class="cls-1" x="0" y="67.87" width="45.43" height="10.63"/>
      <rect id="_사각형_1507" data-name="사각형 1507" class="cls-1" x="0" y="31.31" width="45.43" height="10.63"/>
      <rect id="_사각형_1516" data-name="사각형 1516" class="cls-1" x="273.33" y="50.57" width="10.63" height="68.76"/>
      <rect id="_사각형_1518" data-name="사각형 1518" class="cls-1" x="238.69" y="108.7" width="45.28" height="10.63"/>
      <rect id="_사각형_1515" data-name="사각형 1515" class="cls-1" x="239.61" y="70.02" width="43.43" height="10.63"/>
      <rect id="_사각형_1508" data-name="사각형 1508" class="cls-1" x="58.29" y="30.14" width="93.45" height="10.63"/>
      <g id="_타원_242" data-name="타원 242">
        <circle class="cls-6" cx="58.5" cy="101.5" r="21.5"/>
        <path class="cls-1" d="m58.5,123c-11.85,0-21.5-9.64-21.5-21.5s9.65-21.5,21.5-21.5,21.5,9.64,21.5,21.5-9.65,21.5-21.5,21.5Zm0-33c-6.34,0-11.5,5.16-11.5,11.5s5.16,11.5,11.5,11.5,11.5-5.16,11.5-11.5-5.16-11.5-11.5-11.5Z"/>
      </g>
      <g id="_그룹_1674" data-name="그룹 1674">
        <g class="cls-5">
          <g id="_그룹_1673" data-name="그룹 1673">
            <path id="_패스_879" data-name="패스 879" class="cls-7" d="m299.49,30.84c-9.54,4.29-20.76.03-25.05-9.52-3.26-7.25-1.64-15.77,4.05-21.32-11.77,2.93-18.94,14.85-16,26.62,2.93,11.77,14.85,18.94,26.62,16,7.72-1.92,13.8-7.87,15.88-15.55-1.6,1.57-3.46,2.84-5.51,3.76"/>
          </g>
        </g>
      </g>
      <circle id="_타원_270" data-name="타원 270" class="cls-7" cx="8.5" cy="144.5" r="1.5"/>
      <circle id="_타원_271" data-name="타원 271" class="cls-7" cx="27.5" cy="144.5" r="1.5"/>
      <circle id="_타원_272" data-name="타원 272" class="cls-7" cx="46.5" cy="144.5" r="1.5"/>
      <circle id="_타원_273" data-name="타원 273" class="cls-7" cx="171.5" cy="144.5" r="1.5"/>
      <circle id="_타원_274" data-name="타원 274" class="cls-7" cx="190.5" cy="144.5" r="1.5"/>
      <circle id="_타원_275" data-name="타원 275" class="cls-7" cx="209.5" cy="144.5" r="1.5"/>
    </g>
  </g>
</svg>